<svg xmlns="http://www.w3.org/2000/svg" width="20.384" height="20.384" viewBox="0 0 20.384 20.384">
  <g id="Group_4" data-name="Group 4" transform="translate(-1248.5 -52.308)">
    <path id="Path_8" data-name="Path 8" d="M12.442,2.25A10.192,10.192,0,1,0,22.634,12.442,10.192,10.192,0,0,0,12.442,2.25Zm5.824,16.685v-.443a3.792,3.792,0,0,0-3.64-3.866H10.258a3.786,3.786,0,0,0-3.633,3.866c0,.008-.007.016-.007.024v.426a8.74,8.74,0,1,1,11.648-.007Z" transform="translate(1246.25 50.058)" fill="#244c5a"/>
    <path id="Path_9" data-name="Path 9" d="M16.015,7.875a3.64,3.64,0,1,0,3.64,3.64,3.64,3.64,0,0,0-3.64-3.64Z" transform="translate(1242.677 48.073)" fill="#244c5a"/>
  </g>
</svg>
